# xmcd
#
# Track frame offsets:
#	150
#	10075
#	62282
#	115785
#	127462
#	173132
#	223422
#	232397
#
# Disc length: 3256 seconds
#
# Revision: 1
# Processed by: cddbd v1.5.1PL0 Copyright (c) Steve Scherf et al.
# Submitted via: CDex 1.50Beta5
#
DISCID=760cb608
DTITLE=エンジェルス - 電脳戦隊ブギィ’ズ・エンジェル Vol.1 まだ見ぬ地上へ
DYEAR=1996
DGENRE=
TTITLE0=エンジェルス/もっともっとRadical Fight!
TTITLE1=久川綾/激突!エンジェル対エンジェル*ドラマ
TTITLE2=久川綾/まだ見ぬ地上へ*ドラマ
TTITLE3=丹下桜/恋のHo-Tei-Shiki
TTITLE4=久川綾/けど仲間だもん*ドラマ
TTITLE5=久川綾/勝利の夜明け*ドラマ
TTITLE6=久川綾/恋のプログラム
TTITLE7=久川綾/進め!スーパーエンジェルス!*ドラマ
EXTD=
EXTT0=
EXTT1=
EXTT2=
EXTT3=
EXTT4=
EXTT5=
EXTT6=
EXTT7=
PLAYORDER=
